<?xml version="1.0" encoding="UTF-8" standalone="no"?>
<!-- Generator: Adobe Illustrator 23.0.1, SVG Export Plug-In . SVG Version: 6.00 Build 0)  -->

<svg
   xmlns:dc="http://purl.org/dc/elements/1.1/"
   xmlns:cc="http://creativecommons.org/ns#"
   xmlns:rdf="http://www.w3.org/1999/02/22-rdf-syntax-ns#"
   xmlns:svg="http://www.w3.org/2000/svg"
   xmlns="http://www.w3.org/2000/svg"
   xmlns:sodipodi="http://sodipodi.sourceforge.net/DTD/sodipodi-0.dtd"
   xmlns:inkscape="http://www.inkscape.org/namespaces/inkscape"
   version="1.1"
   x="0px"
   y="0px"
   width="144"
   height="144"
   viewBox="0 0 144 144"
   enable-background="new 0 0 1024 768"
   xml:space="preserve"
   id="svg11"
   sodipodi:docname="logo.svg"
   inkscape:version="0.92.4 (5da689c313, 2019-01-14)"
   inkscape:export-filename="C:\Users\Anthony\Documents\Google Drive\code\curve-appreciator\logo512.png"
   inkscape:export-xdpi="341.32999"
   inkscape:export-ydpi="341.32999"><metadata
   id="metadata17"><rdf:RDF><cc:Work
       rdf:about=""><dc:format>image/svg+xml</dc:format><dc:type
         rdf:resource="http://purl.org/dc/dcmitype/StillImage" /><dc:title></dc:title></cc:Work></rdf:RDF></metadata><defs
   id="defs15" /><sodipodi:namedview
   pagecolor="#ffffff"
   bordercolor="#666666"
   borderopacity="1"
   objecttolerance="10"
   gridtolerance="10"
   guidetolerance="10"
   inkscape:pageopacity="0"
   inkscape:pageshadow="2"
   inkscape:window-width="2560"
   inkscape:window-height="1377"
   id="namedview13"
   showgrid="false"
   inkscape:zoom="1"
   inkscape:cx="247.36263"
   inkscape:cy="191.75788"
   inkscape:window-x="-8"
   inkscape:window-y="-8"
   inkscape:window-maximized="1"
   inkscape:current-layer="svg11" />


<g
   id="Layer_1"
   transform="matrix(0.32867374,0.18975987,-0.18975987,0.32867374,-20.418959,-130.2355)"
   style="fill:none;fill-opacity:1;stroke:#000000;stroke-width:10.53963613;stroke-miterlimit:4;stroke-dasharray:none;stroke-opacity:1;stroke-linecap:round">
	<path
   stroke-miterlimit="10"
   d="m 414.5,549.5 c 22.7,-15.65 38.2,-30.7 44,-40 4.12,-6.6 6,-13 6,-13 1.92,-6.52 2.02,-11.93 2,-15 -0.26,-40.46 -8,-74 -8,-74 -9.87,-29.6 -14.7,-53.32 -17,-60 -3.27,-9.5 -4.84,-13.2 -19,-52 -6.52,-17.86 -9.78,-26.81 -10,-28 -5.36,-29.47 6.7,-62.55 29,-81 7.99,-6.61 15.62,-9.99 18,-11 4.66,-1.97 15.94,-6.14 40,-5 22.85,1.09 43,6 66,18 5.4,4.17 12.03,9.02 17,18 9.44,17.07 5.55,34.91 4,42 -6.27,28.76 -28.53,44.7 -35,49"
   id="path8"
   inkscape:connector-curvature="0"
   style="fill:none;fill-opacity:1;stroke:#000000;stroke-width:10.53963613;stroke-miterlimit:4;stroke-dasharray:none;stroke-opacity:1;stroke-linecap:round" />
</g>
<circle
   style="fill:#b20000;fill-opacity:1;stroke-width:0.79199874;stroke-miterlimit:4;stroke-dasharray:0.79199871, 2.37599611;stroke-dashoffset:10"
   id="path825"
   cx="93.857117"
   cy="83.089981"
   r="11.988885"
   transform="rotate(30)" /></svg>